<?xml version="1.0" encoding="utf-8"?>
<!-- Generator: Adobe Illustrator 19.0.0, SVG Export Plug-In . SVG Version: 6.00 Build 0)  -->
<svg version="1.1" id="Layer_1" xmlns="http://www.w3.org/2000/svg" xmlns:xlink="http://www.w3.org/1999/xlink" x="0px" y="0px"
	 viewBox="0 0 432 53.2" style="enable-background:new 0 0 432 53.2;" xml:space="preserve">
<style type="text/css">
	.st0{fill:#4D75A0;}
	.st1{clip-path:url(#XMLID_37_);fill:#4D75A0;}
</style>
<polygon id="XMLID_9_" class="st0" points="28.5,0.8 28.5,18.2 19.4,18.2 19.4,0.8 0,0.8 0,52.3 19.4,52.3 19.4,33.1 28.5,33.1 
	28.5,52.3 47.9,52.3 47.9,0.8 "/>
<polygon id="XMLID_8_" class="st0" points="83.7,0.8 83.7,52.3 123,52.3 123,38.9 103.2,38.9 103.2,32.9 121,32.9 121,19.6 
	103.2,19.6 103.2,14 122.3,14 122.3,0.8 "/>
<path class="st0" d="M180.2,11.2l4.4,20.4h-9.2L180.2,11.2z M168,0.8L151,52.4h19.6l1.9-8.3h15l1.8,8.3h21.3L194.2,0.8H168z"/>
<g>
	<defs>
		<rect id="XMLID_2_" width="432" height="53.2"/>
	</defs>
	<clipPath id="XMLID_37_">
		<use xlink:href="#XMLID_2_"  style="overflow:visible;"/>
	</clipPath>
	<path class="st1" d="M258.1,22.1v-9.7c0.8-0.1,1.6-0.1,2.2-0.1c4.4,0,6.3,1.4,6.3,4.6c0,3.3-2.4,5.3-7.1,5.3
		C259.1,22.1,258.6,22.1,258.1,22.1 M238.7,52.3h19.4V33.7c0.6-0.1,1.3-0.1,1.8-0.1c4.7,0,5.3,2.2,6.1,7.8l0.5,3.8
		c0.3,2.3,0.9,4.7,1.5,7.2h19.7c-0.9-3.8-1.5-6.9-1.8-9.2l-0.6-5.5c-0.9-7.4-2.6-10.6-9.5-11.8c6.7-1.8,10.2-5.8,10.2-12
		c0-10.3-6.6-13.1-20.8-13.1h-26.4V52.3z"/>
	<path id="XMLID_3_" class="st1" d="M334.5,35.8v0.4c0,3.5,1.6,5.1,4.9,5.1c3,0,4.8-1.5,4.8-3.7c0-1.7-0.7-2.9-2-3.6
		c-2.6-1.3-7.3-2-13.4-4c-8.3-2.6-12.2-6.7-12.2-13.9c0-10.1,8.2-16.2,23.2-16.2c13.7,0,20.9,5.1,20.9,14.2v1.1h-17.1
		c-0.2-3.1-1.6-4.6-4.5-4.6c-2.6,0-4.3,1.5-4.3,3.4c0,3.6,3.6,3.5,10.1,5.2c12,3.2,17.7,6.5,17.7,15.8c0,10.9-8.7,18-23.6,18
		c-15.1,0-23.1-5.7-23.1-15.5c0-0.6,0-1.2,0.1-1.9H334.5z"/>
</g>
<polygon id="XMLID_1_" class="st0" points="387.2,0.8 387.2,14.5 399.7,14.5 399.7,52.3 419.6,52.3 419.6,14.5 432,14.5 432,0.8 "/>
</svg>
