<?xml version="1.0" encoding="UTF-8" standalone="no"?>
<svg width="120px" height="23px" viewBox="0 0 120 23" version="1.1" xmlns="http://www.w3.org/2000/svg" xmlns:xlink="http://www.w3.org/1999/xlink">
    <!-- Generator: Sketch 40.1 (33804) - http://www.bohemiancoding.com/sketch -->
    <title>Logo</title>
    <desc>Created with Sketch.</desc>
    <defs></defs>
    <g id="--Symbols" stroke="none" stroke-width="1" fill="none" fill-rule="evenodd">
        <g id="Footer-1440" transform="translate(-137.000000, -447.000000)" fill="#FFFFFF">
            <g id="Logo" transform="translate(137.000000, 447.000000)">
                <path d="M43.2526887,8.62219868 C43.2526887,8.42590728 43.3861987,8.32100662 43.5538808,8.32100662 C43.8375894,8.32100662 44.2659338,8.62219868 44.5075232,9.22458278 C44.4209007,9.22458278 44.2905695,9.25080795 44.2031523,9.25080795 C43.686596,9.25080795 43.2526887,9.00524503 43.2526887,8.62219868 L43.2526887,8.62219868 Z M12.0002384,8.62219868 C12.0002384,8.42590728 12.1281854,8.32100662 12.3030199,8.32100662 C12.5795762,8.32100662 12.9904371,8.62219868 13.2288477,9.22458278 C12.4309669,9.22458278 12.0002384,9.05213245 12.0002384,8.62219868 L12.0002384,8.62219868 Z M18.028053,5.50935099 C18.028053,2.28683444 18.6558675,1.7917351 18.8505695,1.7917351 C19.1970596,1.7917351 19.2383841,2.00789404 19.2383841,3.24365563 C19.2383841,4.5135894 18.6971921,6.17531126 18.028053,7.08762914 L18.028053,5.50935099 Z M39.9705695,8.68656954 C39.598649,9.20471523 39.297457,9.94060927 39.297457,10.8886887 C39.297457,12.7045828 40.3329536,14.4378278 42.3451391,14.4378278 C44.2905695,14.4378278 45.6534834,12.9008742 45.6534834,10.7575629 C45.6534834,10.1353113 45.6296424,10.0494834 45.5891126,9.7912053 C46.041298,9.59411921 46.4314967,9.29292715 46.7350728,9.05213245 C46.993351,8.85743046 47.1864636,8.74855629 47.3406358,8.74855629 C47.534543,8.74855629 47.6195762,8.90034437 47.6195762,9.18087417 L47.6195762,13.421404 C47.6195762,14.112 47.8381192,14.4378278 48.3761325,14.4378278 C48.8720265,14.4378278 49.2209007,14.0897483 49.4140132,13.6796821 C50.129245,12.1880265 51.1647417,10.1996821 51.6169272,9.44471523 C51.7258013,9.2714702 51.8140132,9.13875497 51.876,9.13875497 C51.9626225,9.13875497 52.0071258,9.20471523 52.0071258,9.48445033 L52.0071258,12.8603444 C52.0071258,13.8100132 52.4410331,14.4378278 53.3883179,14.4378278 C54.3848742,14.4378278 54.8791788,13.4833907 55.7501722,12.0139868 C55.7914967,11.9257748 55.8097748,11.8629934 55.8097748,11.8002119 C55.8097748,11.6055099 55.641298,11.4950464 55.4672583,11.4950464 C55.2709669,11.4950464 55.1628874,11.6913377 54.516,12.402596 C54.3848742,12.5376954 54.2577219,12.725245 54.0177219,12.725245 C53.931894,12.725245 53.8659338,12.6211391 53.8659338,12.4892185 L53.8659338,8.70484768 C53.8659338,7.68842384 53.4113642,7.27835762 52.828053,7.27835762 C52.3536159,7.27835762 51.9626225,7.4730596 51.5525563,8.07862252 C50.817457,9.16180132 50.0609007,10.6979603 49.6516291,11.472 C49.6055364,11.562596 49.5435497,11.6913377 49.5014305,11.6913377 C49.4561325,11.6913377 49.4370596,11.6245828 49.4370596,11.472 L49.4370596,8.70484768 C49.4370596,7.90696689 49.2209007,7.27835762 48.3761325,7.27835762 C47.489245,7.27835762 47.0362649,7.88471523 46.3877881,8.33769536 C45.9769272,8.64365563 45.6105695,8.85743046 45.3308344,8.98696689 C44.8961325,7.88471523 44.097457,7.32603974 43.4275232,7.34272848 C42.7552053,7.36577483 42.2799735,7.77901987 42.2799735,8.4712053 C42.2799735,9.18087417 42.7146755,9.67517881 43.2956026,9.89531126 C43.6182517,10.0248477 43.9218278,10.0494834 44.3565298,10.0494834 C44.4868609,10.0494834 44.6156026,10.0494834 44.6990464,10.0248477 C44.7451391,10.2402119 44.7244768,10.5469669 44.7244768,10.7837881 C44.7244768,11.8447152 44.097457,12.9008742 42.9316291,12.9008742 C41.7181192,12.9008742 41.0076556,11.733457 41.0076556,10.3943841 C41.0076556,9.37716556 41.3088477,8.53557616 41.8023576,7.9538543 C42.0018278,7.73610596 42.1504371,7.60418543 42.1504371,7.40471523 C42.1504371,7.30378808 42.0018278,7.27835762 41.870702,7.27835762 C41.0473907,7.27835762 40.1422252,7.64709934 39.5167947,7.96974834 C38.6910993,8.40286093 37.7207682,9.11888742 36.9197086,9.8317351 C36.5310993,8.96471523 36.0558675,8.20815894 35.8166623,7.62246358 C35.7308344,7.38484768 35.668053,7.10908609 35.4948079,7.10908609 C35.3414305,7.10908609 35.2746755,7.26007947 35.1689801,7.55809272 C34.7811656,8.70484768 32.7046093,12.0584901 32.2508344,12.5122649 C32.2079205,12.5742517 32.1451391,12.642596 32.1244768,12.642596 C32.0775894,12.642596 32.0529536,12.6211391 32.0529536,12.4892185 L32.0529536,8.70484768 C32.0529536,7.68842384 31.6428874,7.27835762 31.0850066,7.27835762 C30.6073907,7.27835762 30.1981192,7.4730596 29.8095099,8.07862252 C29.097457,9.16180132 28.2288477,10.7400795 27.8195762,11.5165033 C27.7536159,11.6500132 27.6884503,11.6913377 27.6661987,11.6913377 C27.6447417,11.6913377 27.6272583,11.6055099 27.6272583,11.472 L27.6272583,8.70484768 C27.6272583,7.68842384 27.2148079,7.27835762 26.6521589,7.27835762 C26.1753377,7.27835762 25.723947,7.45557616 25.3544106,8.07862252 C24.4484503,9.61557616 22.9361325,11.9718675 22.6548079,12.3580927 C22.6110993,12.4248477 22.5673907,12.4685563 22.5244768,12.4892185 C22.4815629,12.4892185 22.4569272,12.4470993 22.4569272,12.3398146 L22.4569272,8.70484768 C22.4569272,7.68842384 22.0468609,7.27835762 21.4881854,7.27835762 C20.7085828,7.27835762 20.278649,7.99517881 19.9949404,8.44656954 C19.603947,9.0735894 19.0873907,9.91835762 18.6781192,10.6979603 C18.396,11.2192848 18.1567947,11.6913377 18.0693775,11.6913377 C18.028053,11.6913377 18.028053,11.4950464 18.028053,11.1286887 L18.028053,8.2327947 C19.3877881,6.71650331 20.2317616,4.85928477 20.2317616,2.82723179 C20.2317616,1.65743046 19.7152053,1.01213245 18.9173245,1.01213245 C17.4224901,1.01213245 16.2797086,3.34776159 16.2797086,6.1125298 L16.2797086,8.36074172 C15.5867285,8.7938543 14.937457,9.00524503 14.1363974,9.16180132 C13.7271258,7.9538543 12.8609007,7.32603974 12.171894,7.34272848 C11.5035497,7.36577483 11.0259338,7.77901987 11.0259338,8.4712053 C11.0259338,9.61557616 12.1504371,10.0908079 13.1422252,10.0908079 L13.4235497,10.0908079 C13.4656689,10.3085563 13.4656689,10.5469669 13.4656689,10.7837881 C13.4656689,11.8447152 12.8394437,12.9008742 11.6752053,12.9008742 C10.4656689,12.9008742 9.75043709,11.733457 9.75043709,10.3943841 C9.75043709,9.37716556 10.0500397,8.53557616 10.5475232,7.9538543 C10.7438146,7.73610596 10.8963974,7.54140397 10.8963974,7.40471523 C10.8963974,7.30378808 10.7438146,7.27835762 10.6126887,7.27835762 C9.79176159,7.27835762 7.97825166,8.38537748 5.81507285,10.5469669 C5.62354967,8.81690066 5.40580132,7.12895364 5.40580132,5.48550993 C5.40580132,3.64895364 5.76898013,2.08895364 5.85560265,1.63915232 C5.89931126,1.36021192 5.92633113,1.18458278 5.92633113,1.05743046 C5.92633113,0.883390728 5.8341457,0.794384106 5.60129801,0.794384106 C3.84818543,0.794384106 0.000238410596,3.58458278 0.000238410596,7.75676821 C0.000238410596,10.7154437 1.08341722,12.1435232 2.96050331,13.9808742 C1.82090066,15.8190199 0.906993377,18.0012715 0.906993377,19.9474967 C0.906993377,21.3501457 1.2344106,22.4126623 2.26911258,22.4126623 C4.43149669,22.4126623 6.05109934,17.9186225 6.05109934,14.5872318 C6.05109934,13.5938543 6.01136424,12.5980927 5.92633113,11.6055099 C6.72341722,10.7575629 7.956,9.61557616 8.25639735,9.50749669 C8.12765563,9.96206623 8.04103311,10.4388874 8.04103311,10.8886887 C8.04103311,12.7045828 9.08050331,14.4378278 11.0887152,14.4378278 C12.9721589,14.4378278 14.3962649,12.9008742 14.3962649,10.7575629 C14.3962649,10.4810066 14.3740132,10.2402119 14.3549404,9.98193377 C15.0431523,9.85239735 15.6765298,9.67517881 16.2797086,9.3135894 L16.2797086,13.6582252 C16.2797086,14.2176954 16.6659338,14.4378278 17.0338808,14.4378278 C17.5337483,14.4378278 17.7928212,14.0897483 18.1567947,13.2942517 C18.462755,12.642596 19.281298,11.1525298 19.7779868,10.2632583 C20.1697748,9.56948344 20.3859338,9.11888742 20.5599735,9.11888742 C20.6005033,9.11888742 20.646596,9.22458278 20.646596,9.48445033 L20.646596,13.1821987 C20.646596,14.1771656 21.1655364,14.4378278 21.614543,14.4378278 C22.0468609,14.4378278 22.3297748,14.2002119 22.6110993,13.8100132 C23.7363974,12.2086887 24.9268609,10.3085563 25.3989139,9.48445033 C25.4863311,9.33663576 25.5936159,9.22458278 25.6810331,9.22458278 C25.7652715,9.22458278 25.8089801,9.2714702 25.8089801,9.54882119 L25.8089801,13.421404 C25.8089801,14.112 26.0251391,14.4378278 26.5679205,14.4378278 C27.0622252,14.4378278 27.3856689,14.0897483 27.5787815,13.6796821 C28.2971921,12.1880265 29.353351,10.2195497 29.8095099,9.44471523 C29.9152053,9.2714702 30.0240795,9.11888742 30.0884503,9.11888742 C30.1782517,9.11888742 30.1981192,9.22458278 30.1981192,9.50749669 L30.1981192,13.1821987 C30.1981192,14.1771656 30.7170596,14.4378278 31.1740132,14.4378278 C31.7740132,14.4378278 32.1673907,14.0031258 32.556,13.5080265 C33.2648742,12.5742517 34.3035497,10.9165033 34.9313642,9.85239735 C35.1491126,10.1996821 35.3843444,10.6113377 35.5822252,11.0643179 C35.0624901,11.6913377 34.542755,12.402596 34.542755,13.1583576 C34.542755,13.9594172 35.1046093,14.4378278 35.6887152,14.4378278 C36.681298,14.4378278 37.588053,13.4833907 37.588053,12.1673642 C37.588053,11.6500132 37.4394437,11.1080265 37.2463311,10.5906755 C38.1276556,9.72365563 39.1885828,8.88047682 39.9705695,8.68656954 L39.9705695,8.68656954 Z M4.36474172,13.3991523 C4.53957616,14.5435232 4.69136424,15.6704106 4.69136424,16.5549139 C4.69136424,18.626702 4.00156291,21.0489536 2.81189404,21.0290861 C2.35255629,21.0290861 1.96633113,20.5697483 1.94725828,19.7742517 C1.90354967,17.1827285 3.13533775,14.9766358 4.36474172,13.3991523 L4.36474172,13.3991523 Z M35.9247417,11.9257748 C36.0558675,12.2976954 36.1218278,12.5980927 36.1218278,12.9008742 C36.1218278,13.2473642 35.9914967,13.5938543 35.7522914,13.5938543 C35.5822252,13.5938543 35.4089801,13.3991523 35.4089801,13.0955762 C35.4089801,12.770543 35.6887152,12.2516026 35.9247417,11.9257748 L35.9247417,11.9257748 Z M5.14513907,1.61610596 C5.14513907,1.74802649 4.84235762,2.3512053 4.45454305,3.4335894 C4.04368212,4.55570861 3.65189404,6.1538543 3.65189404,8.07862252 C3.65189404,9.22458278 3.93560265,10.7400795 4.17480795,12.2738543 L3.48262252,13.2068344 C2.37878146,11.8629934 1.68818543,10.3522649 1.68818543,7.75676821 C1.68818543,4.08286093 3.9141457,1.53425166 5.05772185,1.53425166 C5.12606623,1.53425166 5.14513907,1.5533245 5.14513907,1.61610596 L5.14513907,1.61610596 Z" id="Fill-1"></path>
                <path d="M106.649563,8.62219868 C106.649563,8.42590728 106.775921,8.32100662 106.950755,8.32100662 C107.229695,8.32100662 107.662808,8.62219868 107.899629,9.22458278 C107.815391,9.22458278 107.685854,9.25080795 107.595258,9.25080795 C107.081086,9.25080795 106.649563,9.00524503 106.649563,8.62219868 L106.649563,8.62219868 Z M75.390755,8.62219868 C75.390755,8.42590728 75.5226755,8.32100662 75.6935364,8.32100662 C75.9748609,8.32100662 76.3896954,8.62219868 76.622543,9.22458278 C75.8230728,9.22458278 75.390755,9.05213245 75.390755,8.62219868 L75.390755,8.62219868 Z M81.422543,5.50935099 C81.422543,2.28683444 82.0463841,1.7917351 82.2434702,1.7917351 C82.5883709,1.7917351 82.6320795,2.00789404 82.6320795,3.24365563 C82.6320795,4.5135894 82.0900927,6.17531126 81.422543,7.08762914 L81.422543,5.50935099 Z M67.7632053,13.3991523 C67.9308874,14.5435232 68.0882384,15.6704106 68.0882384,16.5549139 C68.0882384,18.626702 67.3976424,21.0489536 66.2055894,21.0290861 C65.7526093,21.0290861 65.3632053,20.5697483 65.3417483,19.7742517 C65.297245,17.1827285 66.5314172,14.9766358 67.7632053,13.3991523 L67.7632053,13.3991523 Z M99.3224106,11.9257748 C99.4535364,12.2976954 99.5155232,12.5980927 99.5155232,12.9008742 C99.5155232,13.2473642 99.3859868,13.5938543 99.1483709,13.5938543 C98.9775099,13.5938543 98.7994967,13.3991523 98.7994967,13.0955762 C98.7994967,12.770543 99.0832053,12.2516026 99.3224106,11.9257748 L99.3224106,11.9257748 Z M68.537245,1.61610596 C68.537245,1.74802649 68.2376424,2.3512053 67.8458543,3.4335894 C67.4381722,4.55570861 67.0463841,6.1538543 67.0463841,8.07862252 C67.0463841,9.22458278 67.3348609,10.7400795 67.5708874,12.2738543 L66.8771126,13.2068344 C65.7764503,11.8629934 65.0810861,10.3522649 65.0810861,7.75676821 C65.0810861,4.08286093 67.3118146,1.53425166 68.4553907,1.53425166 C68.5181722,1.53425166 68.537245,1.5533245 68.537245,1.61610596 L68.537245,1.61610596 Z M64.9332715,12.4248477 C65.3194967,12.9437881 65.7963179,13.4404768 66.3581722,13.9808742 C65.2114172,15.8190199 64.3046623,18.0012715 64.3046623,19.9474967 C64.3046623,21.3501457 64.6312848,22.4126623 65.6691656,22.4126623 C67.8283709,22.4126623 69.4479735,17.9186225 69.4479735,14.5872318 C69.4479735,13.5938543 69.4058543,12.5980927 69.3192318,11.6055099 C70.1202914,10.7575629 71.348106,9.61557616 71.6548609,9.50749669 C71.5245298,9.96206623 71.4347285,10.4388874 71.4347285,10.8886887 C71.4347285,12.7045828 72.473404,14.4378278 74.4855894,14.4378278 C76.3642649,14.4378278 77.790755,12.9008742 77.790755,10.7575629 C77.790755,10.4810066 77.7708874,10.2402119 77.7470464,9.98193377 C78.4400265,9.85239735 79.0710199,9.67517881 79.6726093,9.3135894 L79.6726093,13.6582252 C79.6726093,14.2176954 80.0596291,14.4378278 80.4243974,14.4378278 C80.9282384,14.4378278 81.1873113,14.0897483 81.5528742,13.2942517 C81.8540662,12.642596 82.6773775,11.1525298 83.1756556,10.2632583 C83.5634702,9.56948344 83.7796291,9.11888742 83.9568477,9.11888742 C83.9973775,9.11888742 84.0379073,9.22458278 84.0379073,9.48445033 L84.0379073,13.1821987 C84.0379073,14.1771656 84.5552583,14.4378278 85.0098278,14.4378278 C85.4437351,14.4378278 85.7218808,14.2002119 86.0087682,13.8100132 C87.129298,12.2086887 88.3197616,10.3085563 88.7941987,9.48445033 C88.8808212,9.33663576 88.9904901,9.22458278 89.0739338,9.22458278 C89.1581722,9.22458278 89.2058543,9.2714702 89.2058543,9.54882119 L89.2058543,13.421404 C89.2058543,14.112 89.4196291,14.4378278 89.9592318,14.4378278 C90.4567152,14.4378278 90.7809536,14.0897483 90.977245,13.6796821 C91.6908874,12.1880265 92.7494305,10.2195497 93.2016159,9.44471523 C93.3120795,9.2714702 93.4193642,9.11888742 93.4869139,9.11888742 C93.5711523,9.11888742 93.5949934,9.22458278 93.5949934,9.50749669 L93.5949934,13.1821987 C93.5949934,14.1771656 94.1091656,14.4378278 94.5621457,14.4378278 C95.1716821,14.4378278 95.5610861,14.0031258 95.9473113,13.5080265 C96.6601589,12.5742517 97.7004238,10.9165033 98.326649,9.85239735 C98.5404238,10.1996821 98.7812185,10.6113377 98.9775099,11.0643179 C98.4530066,11.6913377 97.9396291,12.402596 97.9396291,13.1583576 C97.9396291,13.9594172 98.4951258,14.4378278 99.0832053,14.4378278 C100.075788,14.4378278 100.982543,13.4833907 100.982543,12.1673642 C100.982543,11.6500132 100.832344,11.1080265 100.637642,10.5906755 C101.52294,9.72365563 102.583073,8.88047682 103.361086,8.68656954 C102.993934,9.20471523 102.691152,9.94060927 102.691152,10.8886887 C102.691152,12.7045828 103.729828,14.4378278 105.740424,14.4378278 C107.685854,14.4378278 109.044,12.9008742 109.044,10.7575629 C109.044,10.1353113 109.024132,10.0494834 108.983603,9.7912053 C109.432609,9.59411921 109.824397,9.29292715 110.130358,9.05213245 C110.383868,8.85743046 110.582543,8.74855629 110.731152,8.74855629 C110.926649,8.74855629 111.01804,8.90034437 111.01804,9.18087417 L111.01804,13.421404 C111.01804,14.112 111.23102,14.4378278 111.771417,14.4378278 C112.266517,14.4378278 112.614596,14.0897483 112.810093,13.6796821 C113.518967,12.1880265 114.558437,10.1996821 115.010623,9.44471523 C115.118702,9.2714702 115.206914,9.13875497 115.272079,9.13875497 C115.360291,9.13875497 115.402411,9.20471523 115.402411,9.48445033 L115.402411,12.8603444 C115.402411,13.8100132 115.830755,14.4378278 116.784397,14.4378278 C117.781748,14.4378278 118.277642,13.4833907 119.143868,12.0139868 C119.184397,11.9257748 119.20506,11.8629934 119.20506,11.8002119 C119.20506,11.6055099 119.031815,11.4950464 118.860159,11.4950464 C118.667046,11.4950464 118.556583,11.6913377 117.909695,12.402596 C117.781748,12.5376954 117.649828,12.725245 117.413007,12.725245 C117.324,12.725245 117.262808,12.6211391 117.262808,12.4892185 L117.262808,8.70484768 C117.262808,7.68842384 116.80347,7.27835762 116.220159,7.27835762 C115.747311,7.27835762 115.360291,7.4730596 114.947841,8.07862252 C114.211152,9.16180132 113.45698,10.6979603 113.049298,11.472 C113.002411,11.562596 112.939629,11.6913377 112.893536,11.6913377 C112.847444,11.6913377 112.830755,11.6245828 112.830755,11.472 L112.830755,8.70484768 C112.830755,7.90696689 112.614596,7.27835762 111.771417,7.27835762 C110.88294,7.27835762 110.43155,7.88471523 109.783868,8.33769536 C109.369033,8.64365563 109.004265,8.85743046 108.720556,8.98696689 C108.292212,7.88471523 107.489563,7.32603974 106.822808,7.34272848 C106.148901,7.36577483 105.677642,7.77901987 105.677642,8.4712053 C105.677642,9.18087417 106.10996,9.67517881 106.688503,9.89531126 C107.013536,10.0248477 107.316318,10.0494834 107.754199,10.0494834 C107.880556,10.0494834 108.006119,10.0494834 108.098305,10.0248477 C108.140424,10.2402119 108.118172,10.5469669 108.118172,10.7837881 C108.118172,11.8447152 107.489563,12.9008742 106.321351,12.9008742 C105.111815,12.9008742 104.401351,11.733457 104.401351,10.3943841 C104.401351,9.37716556 104.701748,8.53557616 105.196848,7.9538543 C105.393934,7.73610596 105.546517,7.60418543 105.546517,7.40471523 C105.546517,7.30378808 105.393934,7.27835762 105.264397,7.27835762 C104.446649,7.27835762 103.535921,7.64709934 102.908901,7.96974834 C102.086384,8.40286093 101.113669,9.11888742 100.316583,9.8317351 C99.9263841,8.96471523 99.4535364,8.20815894 99.2127417,7.62246358 C99.1237351,7.38484768 99.0649272,7.10908609 98.8853245,7.10908609 C98.7359205,7.10908609 98.6699603,7.26007947 98.5634702,7.55809272 C98.1732715,8.70484768 96.099894,12.0584901 95.6461192,12.5122649 C95.6024106,12.5742517 95.5380397,12.642596 95.5149934,12.642596 C95.4744636,12.642596 95.4506225,12.6211391 95.4506225,12.4892185 L95.4506225,8.70484768 C95.4506225,7.68842384 95.0429404,7.27835762 94.4755232,7.27835762 C93.9994967,7.27835762 93.5949934,7.4730596 93.2016159,8.07862252 C92.4871788,9.16180132 91.6249272,10.7400795 91.2140662,11.5165033 C91.1504901,11.6500132 91.0869139,11.6913377 91.0662517,11.6913377 C91.0416159,11.6913377 91.0193642,11.6055099 91.0193642,11.472 L91.0193642,8.70484768 C91.0193642,7.68842384 90.6116821,7.27835762 90.0490331,7.27835762 C89.5722119,7.27835762 89.1152583,7.45557616 88.7512848,8.07862252 C87.8405563,9.61557616 86.3298278,11.9718675 86.0469139,12.3580927 C86.0087682,12.4248477 85.9626755,12.4685563 85.9165828,12.4892185 C85.8784371,12.4892185 85.8530066,12.4470993 85.8530066,12.3398146 L85.8530066,8.70484768 C85.8530066,7.68842384 85.4437351,7.27835762 84.8794967,7.27835762 C84.0990993,7.27835762 83.6699603,7.99517881 83.3870464,8.44656954 C82.9984371,9.0735894 82.4826755,9.91835762 82.0702252,10.6979603 C81.7912848,11.2192848 81.5528742,11.6913377 81.4662517,11.6913377 C81.422543,11.6913377 81.422543,11.4950464 81.422543,11.1286887 L81.422543,8.2327947 C82.7862517,6.71650331 83.6262517,4.85928477 83.6262517,2.82723179 C83.6262517,1.65743046 83.1089007,1.01213245 82.3062517,1.01213245 C80.8169801,1.01213245 79.6726093,3.34776159 79.6726093,6.1125298 L79.6726093,8.36074172 C78.9788344,8.7938543 78.3303576,9.00524503 77.529298,9.16180132 C77.1216159,7.9538543 76.2561854,7.32603974 75.5687682,7.34272848 C74.8940662,7.36577483 74.4204238,7.77901987 74.4204238,8.4712053 C74.4204238,9.61557616 75.5409536,10.0908079 76.5375099,10.0908079 L76.8204238,10.0908079 C76.8601589,10.3085563 76.8601589,10.5469669 76.8601589,10.7837881 C76.8601589,11.8447152 76.2355232,12.9008742 75.0673113,12.9008742 C73.8561854,12.9008742 73.1465166,11.733457 73.1465166,10.3943841 C73.1465166,9.37716556 73.4485033,8.53557616 73.9420132,7.9538543 C74.1359205,7.73610596 74.2885033,7.54140397 74.2885033,7.40471523 C74.2885033,7.30378808 74.1359205,7.27835762 74.0079735,7.27835762 C73.185457,7.27835762 71.3711523,8.38537748 69.2071788,10.5469669 C69.017245,8.81690066 68.798702,7.12895364 68.798702,5.48550993 C68.798702,3.64895364 69.1658543,2.08895364 69.2524768,1.63915232 C69.2953907,1.36021192 69.3192318,1.18458278 69.3192318,1.05743046 C69.3192318,0.883390728 69.2310199,0.794384106 68.9973775,0.794384106 C67.2458543,0.794384106 63.3979073,3.58458278 63.3979073,7.75676821 C63.3979073,9.46219868 63.7650596,10.6757086 64.4135364,11.733457 C64.171947,11.6913377 63.9820132,11.6913377 63.8047947,11.6913377 C63.1157881,11.6913377 62.4649272,11.8629934 62.0612185,11.9512053 L62.0612185,11.5165033 C62.0612185,10.5906755 61.8418808,9.3135894 61.4516821,8.88047682 C61.4055894,8.83597351 61.3412185,8.81690066 61.2808212,8.81690066 C61.1028079,8.81690066 60.8898278,8.90034437 60.6530066,9.0314702 C60.390755,9.16180132 60.1316821,9.29292715 60.1316821,9.37716556 C60.1316821,9.41849007 60.1316821,9.46219868 60.1968477,9.56948344 C60.3494305,9.7912053 60.7610861,10.2195497 60.9096954,11.2383576 C60.1730066,10.5024636 59.3338013,10.1758411 58.2355232,10.1758411 C56.9361854,10.1758411 56.5451921,10.7575629 56.5451921,11.3448477 C56.5451921,12.4685563 58.0368477,13.0304106 59.9202914,13.0304106 C60.2651921,13.0304106 60.6530066,12.965245 61.0400265,12.8770331 C61.0400265,13.2235232 61.0837351,13.5302781 61.0837351,13.7877616 C61.0837351,14.1557086 61.1465166,14.4378278 61.3873113,14.4378278 C61.7536689,14.4378278 61.9714172,13.6995497 62.0127417,12.642596 C62.6826755,12.4685563 63.3756556,12.3191523 63.961351,12.3191523 C64.2410861,12.3191523 64.590755,12.3580927 64.9332715,12.4248477 L64.9332715,12.4248477 Z M60.6752583,12.2086887 C60.3112848,12.2516026 60.0895629,12.2516026 59.7041325,12.2516026 C58.8585695,12.2516026 58.2355232,11.9257748 58.2355232,11.4545166 C58.2355232,11.1525298 58.3849272,10.9769007 58.817245,10.9769007 C59.5102252,10.9769007 60.0689007,11.4545166 60.6752583,12.2086887 L60.6752583,12.2086887 Z" id="Fill-4"></path>
            </g>
        </g>
    </g>
</svg>