<?xml version="1.0" encoding="utf-8"?>
<!-- Generator: Adobe Illustrator 24.1.0, SVG Export Plug-In . SVG Version: 6.00 Build 0)  -->
<svg version="1.1" id="Layer_1" xmlns="http://www.w3.org/2000/svg" xmlns:xlink="http://www.w3.org/1999/xlink" x="0px" y="0px"
	 viewBox="0 0 146.9 34.2" style="enable-background:new 0 0 146.9 34.2;" xml:space="preserve">
<style type="text/css">
	.st0{fill:#FFFFFF;}
</style>
<g>
	<path class="st0" d="M51.2,1.4c1.8,0,3.1,1,3.1,2.8c0,1-0.4,2.3-1.1,3.9l-7.7,19L36.8,7.4c-0.7-1.5-1-2.6-1-3.7
		c0-1.2,1-2.3,3.2-2.3V0.5H26.2v0.9c2.6,0,3.4,0.9,4.9,4.4l12.3,28.3h0.7L55.6,6.1c1.4-3.3,3.2-4.8,4.6-4.8V0.5h-8.9V1.4z M1.3,0.5
		v0.9c3.6,0,4.4,0.9,4.4,3.9v22c0,4.7-0.7,5.2-4.4,5.2v0.9h25.2l2.8-8.9l-0.7-0.2c-2.7,6.7-4.6,7.7-10.3,7.7h-3.5
		c-4.4,0-4.6-0.1-4.6-5.5v-20c0-4.1,0.8-5,5.2-5V0.5H1.3z M105.6,1.4V0.5h-8.2l-12,26l-12.5-26h-8.4v0.9c3.5,0,4.3,1.1,4.3,4.3v21.5
		c0,4.7-0.9,5.2-4.3,5.2v0.9h10.2v-0.9c-3.5,0-4.3-0.5-4.3-5.2V5.7l12.7,27.6h0.8L96.5,5.7v21.5c0,4.7-0.7,5.2-4.6,5.2v0.9h13.7
		v-0.9c-3.8,0-4.4-0.6-4.4-5.2v-22C101.2,2.3,102.1,1.4,105.6,1.4 M119.1,6.6c0-4.6,0.7-5.2,4.4-5.2V0.5h-13.4v0.9
		c3.8,0,4.4,0.6,4.4,5.2v20.6c0,4.6-0.7,5.2-4.4,5.2v0.9h13.4v-0.9c-3.8,0-4.4-0.6-4.4-5.2v-8.7c0-0.9,0.4-1.2,1.4-1.2h14.5
		c1.1,0,1.4,0.4,1.4,1.5v8.4c0,4.6-0.7,5.2-4.4,5.2v0.9h13.4v-0.9c-3.8,0-4.4-0.6-4.4-5.2V6.6c0-4.6,0.7-5.2,4.4-5.2V0.5h-13.4v0.9
		c3.8,0,4.4,0.6,4.4,5.2v7.7c0,1.2-0.3,1.5-1.4,1.5h-14.6c-1,0-1.4-0.3-1.4-1.1V6.6z"/>
</g>
</svg>
